ModelForces
version=1
nRows=4
nColumns=206
inDegrees=no

This file contains the forces exerted on a model during a simulation.

A force is a generalized force, meaning that it can be either a force (N) or a torque (Nm).

Units are S.I. units (second, meters, Newtons, ...)
Angles are in degrees.

endheader
time	glut_med1_r	glut_med2_r	glut_med3_r	glut_min1_r	glut_min2_r	glut_min3_r	semimem_r	semiten_r	bifemlh_r	bifemsh_r	sar_r	add_long_r	add_brev_r	add_mag1_r	add_mag2_r	add_mag3_r	tfl_r	pect_r	grac_r	glut_max1_r	glut_max2_r	glut_max3_r	iliacus_r	psoas_r	quad_fem_r	gem_r	peri_r	rect_fem_r	vas_med_r	vas_int_r	vas_lat_r	med_gas_r	lat_gas_r	soleus_r	tib_post_r	flex_dig_r	flex_hal_r	tib_ant_r	per_brev_r	per_long_r	per_tert_r	ext_dig_r	ext_hal_r	glut_med1_l	glut_med2_l	glut_med3_l	glut_min1_l	glut_min2_l	glut_min3_l	semimem_l	semiten_l	bifemlh_l	bifemsh_l	sar_l	add_long_l	add_brev_l	add_mag1_l	add_mag2_l	add_mag3_l	tfl_l	pect_l	grac_l	glut_max1_l	glut_max2_l	glut_max3_l	iliacus_l	psoas_l	quad_fem_l	gem_l	peri_l	rect_fem_l	vas_med_l	vas_int_l	vas_lat_l	med_gas_l	lat_gas_l	soleus_l	tib_post_l	flex_dig_l	flex_hal_l	tib_ant_l	per_brev_l	per_long_l	per_tert_l	ext_dig_l	ext_hal_l	ercspn_r	ercspn_l	intobl_r	intobl_l	extobl_r	extobl_l	femur_lat_meniscii_l.femur_lat_l.force.X	femur_lat_meniscii_l.femur_lat_l.force.Y	femur_lat_meniscii_l.femur_lat_l.force.Z	femur_lat_meniscii_l.femur_lat_l.torque.X	femur_lat_meniscii_l.femur_lat_l.torque.Y	femur_lat_meniscii_l.femur_lat_l.torque.Z	femur_lat_meniscii_l.meniscus_lat_l.force.X	femur_lat_meniscii_l.meniscus_lat_l.force.Y	femur_lat_meniscii_l.meniscus_lat_l.force.Z	femur_lat_meniscii_l.meniscus_lat_l.torque.X	femur_lat_meniscii_l.meniscus_lat_l.torque.Y	femur_lat_meniscii_l.meniscus_lat_l.torque.Z	femur_med_meniscii_l.femur_med_l.force.X	femur_med_meniscii_l.femur_med_l.force.Y	femur_med_meniscii_l.femur_med_l.force.Z	femur_med_meniscii_l.femur_med_l.torque.X	femur_med_meniscii_l.femur_med_l.torque.Y	femur_med_meniscii_l.femur_med_l.torque.Z	femur_med_meniscii_l.meniscus_med_l.force.X	femur_med_meniscii_l.meniscus_med_l.force.Y	femur_med_meniscii_l.meniscus_med_l.force.Z	femur_med_meniscii_l.meniscus_med_l.torque.X	femur_med_meniscii_l.meniscus_med_l.torque.Y	femur_med_meniscii_l.meniscus_med_l.torque.Z	femur_lat_meniscii_r.femur_lat_r.force.X	femur_lat_meniscii_r.femur_lat_r.force.Y	femur_lat_meniscii_r.femur_lat_r.force.Z	femur_lat_meniscii_r.femur_lat_r.torque.X	femur_lat_meniscii_r.femur_lat_r.torque.Y	femur_lat_meniscii_r.femur_lat_r.torque.Z	femur_lat_meniscii_r.meniscus_lat_r.force.X	femur_lat_meniscii_r.meniscus_lat_r.force.Y	femur_lat_meniscii_r.meniscus_lat_r.force.Z	femur_lat_meniscii_r.meniscus_lat_r.torque.X	femur_lat_meniscii_r.meniscus_lat_r.torque.Y	femur_lat_meniscii_r.meniscus_lat_r.torque.Z	femur_med_meniscii_r.femur_med_r.force.X	femur_med_meniscii_r.femur_med_r.force.Y	femur_med_meniscii_r.femur_med_r.force.Z	femur_med_meniscii_r.femur_med_r.torque.X	femur_med_meniscii_r.femur_med_r.torque.Y	femur_med_meniscii_r.femur_med_r.torque.Z	femur_med_meniscii_r.meniscus_med_r.force.X	femur_med_meniscii_r.meniscus_med_r.force.Y	femur_med_meniscii_r.meniscus_med_r.force.Z	femur_med_meniscii_r.meniscus_med_r.torque.X	femur_med_meniscii_r.meniscus_med_r.torque.Y	femur_med_meniscii_r.meniscus_med_r.torque.Z	femur_med_tibia_l.tibia_upper_l.force.X	femur_med_tibia_l.tibia_upper_l.force.Y	femur_med_tibia_l.tibia_upper_l.force.Z	femur_med_tibia_l.tibia_upper_l.torque.X	femur_med_tibia_l.tibia_upper_l.torque.Y	femur_med_tibia_l.tibia_upper_l.torque.Z	femur_med_tibia_l.femur_med_l.force.X	femur_med_tibia_l.femur_med_l.force.Y	femur_med_tibia_l.femur_med_l.force.Z	femur_med_tibia_l.femur_med_l.torque.X	femur_med_tibia_l.femur_med_l.torque.Y	femur_med_tibia_l.femur_med_l.torque.Z	femur_lat_tibia_l.tibia_upper_l.force.X	femur_lat_tibia_l.tibia_upper_l.force.Y	femur_lat_tibia_l.tibia_upper_l.force.Z	femur_lat_tibia_l.tibia_upper_l.torque.X	femur_lat_tibia_l.tibia_upper_l.torque.Y	femur_lat_tibia_l.tibia_upper_l.torque.Z	femur_lat_tibia_l.femur_lat_l.force.X	femur_lat_tibia_l.femur_lat_l.force.Y	femur_lat_tibia_l.femur_lat_l.force.Z	femur_lat_tibia_l.femur_lat_l.torque.X	femur_lat_tibia_l.femur_lat_l.torque.Y	femur_lat_tibia_l.femur_lat_l.torque.Z	femur_med_tibia_r.tibia_upper_r.force.X	femur_med_tibia_r.tibia_upper_r.force.Y	femur_med_tibia_r.tibia_upper_r.force.Z	femur_med_tibia_r.tibia_upper_r.torque.X	femur_med_tibia_r.tibia_upper_r.torque.Y	femur_med_tibia_r.tibia_upper_r.torque.Z	femur_med_tibia_r.femur_med_r.force.X	femur_med_tibia_r.femur_med_r.force.Y	femur_med_tibia_r.femur_med_r.force.Z	femur_med_tibia_r.femur_med_r.torque.X	femur_med_tibia_r.femur_med_r.torque.Y	femur_med_tibia_r.femur_med_r.torque.Z	femur_lat_tibia_r.tibia_upper_r.force.X	femur_lat_tibia_r.tibia_upper_r.force.Y	femur_lat_tibia_r.tibia_upper_r.force.Z	femur_lat_tibia_r.tibia_upper_r.torque.X	femur_lat_tibia_r.tibia_upper_r.torque.Y	femur_lat_tibia_r.tibia_upper_r.torque.Z	femur_lat_tibia_r.femur_lat_r.force.X	femur_lat_tibia_r.femur_lat_r.force.Y	femur_lat_tibia_r.femur_lat_r.force.Z	femur_lat_tibia_r.femur_lat_r.torque.X	femur_lat_tibia_r.femur_lat_r.torque.Y	femur_lat_tibia_r.femur_lat_r.torque.Z	aACL_R	pACL_R	aPCL_R	pPCL_R	aMCL_R	mMCL_R	pMCL_R	aLCL_R	mLCL_R	pLCL_R	aPCL_L	pPCL_L	aMCL_L	aLCL_L	ground_prescribedForce_-40_fx	ground_prescribedForce_-40_fy	ground_prescribedForce_-40_fz
      0.43385055	      7.66389588	      5.74561615	      6.15127097	      2.69481404	      3.21775887	      3.24168515	      3.97866485	      4.40521210	      6.54275900	      7.10198384	      1.60956536	      5.69333374	      4.19642852	      2.95976505	      2.48887885	      4.05077894	      4.72367372	      2.26911497	      1.63615582	      3.70756746	      5.63449647	      4.20709139	     22.79242504	     13.12974074	      3.67668276	      2.87773127	      4.18302419	     21.88285034	     14.26082860	     15.02919227	     20.38860710	      0.00000000	      1.17299672	     10.46326658	     12.72143314	      2.93878569	      3.92881467	     12.19481313	      3.71099249	      7.50128241	     10.43204632	      7.78051809	      1.41423674	      7.66389588	      5.74561615	      6.15127097	      2.69481404	      3.21775887	      3.24168515	      8.91406117	      4.14535316	      7.82338963	      7.31558427	      1.54015569	      5.69333374	      4.19642852	      2.95976505	      2.48887885	      4.05077894	      4.13618641	      2.26911497	      1.58000366	      3.70756746	      5.63449647	      4.20709139	     22.79242504	     13.12974074	      3.67668276	      2.87773127	      4.18302419	     10.85844784	      6.68775231	      7.67350814	      8.25048559	     14.36561867	      6.67059226	     31.79209013	     42.63587341	      2.83005994	      2.99090980	      8.59574951	      4.42024603	     12.65381061	      2.03115130	      5.36830165	      1.70412214	     25.34478967	     25.34478967	      9.13278592	      9.13278592	     26.92388495	     26.92388495	      2.76307435	     50.99597937	     -9.56042239	      5.21997485	     -0.02578839	      1.48581788	     -2.76307435	    -50.99597937	      9.56042239	     -1.74637766	      0.02558040	     -0.48301696	     -3.31599387	     20.97615968	     -3.40468921	      0.94473225	     -0.02138609	     -1.00501789	      3.31599387	    -20.97615968	      3.40468921	      0.28075727	      0.00368718	     -0.29758878	    152.78945425	    115.88278122	     41.82274172	    -20.02020164	      3.72597336	     62.84044865	   -152.78945425	   -115.88278122	    -41.82274172	      4.25963258	     -4.87913256	     -2.06777003	    417.09044842	    145.46102101	    -67.35119627	     30.07062340	     -7.43844518	    170.17162131	   -417.09044842	   -145.46102101	     67.35119627	     -3.52483202	      6.96899495	     -6.79353852	      0.00000000	      0.00000000	      0.00000000	      0.00000000	      0.00000000	      0.00000000	      0.00000000	      0.00000000	      0.00000000	      0.00000000	      0.00000000	      0.00000000	      0.00000000	      0.00000000	      0.00000000	      0.00000000	      0.00000000	      0.00000000	      0.00000000	      0.00000000	      0.00000000	      0.00000000	      0.00000000	      0.00000000	      0.00000000	      0.00000000	      0.00000000	      0.00000000	      0.00000000	      0.00000000	      0.00000000	      0.00000000	      0.00000000	      0.00000000	      0.00000000	      0.00000000	      0.00000000	      0.00000000	      0.00000000	      0.00000000	      0.00000000	      0.00000000	      0.00000000	      0.00000000	      0.00000000	      0.00000000	      0.00000000	      0.00000000	      0.00000000	      0.00000000	    316.61658142	    209.62206877	      6.13563484	      6.84827937	      4.73262048	      3.12864627	      0.00000000	      0.00000000	      0.00000000	      0.00000000	      0.00000001	      0.00000000	     84.26488000	    -70.70660000	      0.00000000
      0.43638597	      7.66008905	      5.74299514	      6.14843008	      2.69363689	      3.21648517	      3.24007824	      3.96951951	      4.39269505	      6.52689614	      7.07819666	      1.60954556	      5.69070626	      4.19461205	      2.95842469	      2.48772486	      4.04869931	      4.72617639	      2.26811746	      1.63273242	      3.70587737	      5.63192019	      4.20513255	     22.78767100	     13.12439115	      3.67504174	      2.87696226	      4.18000734	     21.87641690	     14.20774325	     14.97394586	     20.31579429	      0.00000000	      1.17712535	     10.51608536	     12.67353524	      2.87181265	      3.89299463	     12.15427865	      3.71755229	      7.51448168	     10.44960593	      7.98676051	      1.44420460	      7.66008905	      5.74299514	      6.14843008	      2.69363689	      3.21648517	      3.24007824	      8.90852871	      4.14331373	      7.81878097	      7.31231707	      1.53948598	      5.69070626	      4.19461205	      2.95842469	      2.48772486	      4.04869931	      4.13489971	      2.26811746	      1.57930470	      3.70587737	      5.63192019	      4.20513255	     22.78767100	     13.12439115	      3.67504174	      2.87696226	      4.18000734	     10.85217357	      6.68463130	      7.66985802	      8.24658060	     14.35268904	      6.66458035	     31.76919988	     42.62685794	      2.82694238	      2.98843304	      8.59102533	      4.41742545	     12.64715909	      2.03032167	      5.36526989	      1.70322945	     25.33369328	     25.33369328	      9.12843181	      9.12843181	     26.91997377	     26.91997377	      2.76307435	     50.99597937	     -9.56042239	      5.21997485	     -0.02578839	      1.48581788	     -2.76307435	    -50.99597937	      9.56042239	     -1.74637766	      0.02558040	     -0.48301696	     -3.31599387	     20.97615968	     -3.40468921	      0.94473225	     -0.02138609	     -1.00501789	      3.31599387	    -20.97615968	      3.40468921	      0.28075727	      0.00368718	     -0.29758878	    152.11004880	    114.44965194	     42.03728623	    -20.07785463	      3.71154931	     62.57224009	   -152.11004880	   -114.44965194	    -42.03728623	      4.22939119	     -4.86715715	     -2.07905200	    416.90352058	    146.83690630	    -65.12279116	     29.17939382	     -7.41734131	    170.08550772	   -416.90352058	   -146.83690630	     65.12279116	     -3.48767367	      6.91295901	     -6.74934765	      0.00000000	      0.00000000	      0.00000000	      0.00000000	      0.00000000	      0.00000000	      0.00000000	      0.00000000	      0.00000000	      0.00000000	      0.00000000	      0.00000000	      0.00000000	      0.00000000	      0.00000000	      0.00000000	      0.00000000	      0.00000000	      0.00000000	      0.00000000	      0.00000000	      0.00000000	      0.00000000	      0.00000000	      0.00000000	      0.00000000	      0.00000000	      0.00000000	      0.00000000	      0.00000000	      0.00000000	      0.00000000	      0.00000000	      0.00000000	      0.00000000	      0.00000000	      0.00000000	      0.00000000	      0.00000000	      0.00000000	      0.00000000	      0.00000000	      0.00000000	      0.00000000	      0.00000000	      0.00000000	      0.00000000	      0.00000000	      0.00000000	      0.00000000	    316.40889038	    209.54172766	      5.90679908	      6.63963678	      4.50670156	      3.03805362	      0.00000000	      0.00000000	      0.00000000	      0.00000000	      0.00000001	      0.00000000	     84.26488000	    -70.70660000	      0.00000000
      0.43892138	      7.65640481	      5.74045846	      6.14568060	      2.69249758	      3.21525244	      3.23852308	      3.95882099	      4.37933898	      6.51229814	      7.06112950	      1.60431131	      5.68816333	      4.19285399	      2.95712746	      2.48660801	      4.04668667	      4.72665573	      2.26715203	      1.62847536	      3.70424167	      5.62942682	      4.20323676	     22.78307000	     13.11921391	      3.67345350	      2.87621802	      4.17708580	     21.86678212	     14.14159392	     14.90618490	     20.22749579	      0.00000000	      1.18085811	     10.56720202	     12.63672937	      2.80556873	      3.85405574	     12.11704038	      3.72219607	      7.52661601	     10.45823398	      8.18410465	      1.47617963	      7.65640481	      5.74045846	      6.14568060	      2.69249758	      3.21525244	      3.23852308	      8.90317376	      4.14133996	      7.81432044	      7.30915495	      1.53883781	      5.68816333	      4.19285399	      2.95712746	      2.48660801	      4.04668667	      4.13365448	      2.26715203	      1.57862822	      3.70424167	      5.62942682	      4.20323676	     22.78307000	     13.11921391	      3.67345350	      2.87621802	      4.17708580	     10.84610107	      6.68161076	      7.66632543	      8.24280135	     14.34014900	      6.65874955	     31.74703359	     42.61813003	      2.82388970	      2.98601805	      8.58645322	      4.41469517	     12.64071470	      2.02951876	      5.36235752	      1.70237245	     25.32295369	     25.32295369	      9.12421785	      9.12421785	     26.91618849	     26.91618849	      2.76307435	     50.99597937	     -9.56042239	      5.21997485	     -0.02578839	      1.48581788	     -2.76307435	    -50.99597937	      9.56042239	     -1.74637766	      0.02558040	     -0.48301696	     -3.31599387	     20.97615968	     -3.40468921	      0.94473225	     -0.02138609	     -1.00501789	      3.31599387	    -20.97615968	      3.40468921	      0.28075727	      0.00368718	     -0.29758878	    151.40286801	    114.00727150	     40.85389314	    -19.57183875	      3.68571110	     62.28395101	   -151.40286801	   -114.00727150	    -40.85389314	      4.17918449	     -4.82269389	     -2.06652452	    417.39293494	    147.33880099	    -67.29020270	     30.07900213	     -7.45415124	    170.28760614	   -417.39293494	   -147.33880099	     67.29020270	     -3.54539375	      6.97817696	     -6.74505825	      0.00000000	      0.00000000	      0.00000000	      0.00000000	      0.00000000	      0.00000000	      0.00000000	      0.00000000	      0.00000000	      0.00000000	      0.00000000	      0.00000000	      0.00000000	      0.00000000	      0.00000000	      0.00000000	      0.00000000	      0.00000000	      0.00000000	      0.00000000	      0.00000000	      0.00000000	      0.00000000	      0.00000000	      0.00000000	      0.00000000	      0.00000000	      0.00000000	      0.00000000	      0.00000000	      0.00000000	      0.00000000	      0.00000000	      0.00000000	      0.00000000	      0.00000000	      0.00000000	      0.00000000	      0.00000000	      0.00000000	      0.00000000	      0.00000000	      0.00000000	      0.00000000	      0.00000000	      0.00000000	      0.00000000	      0.00000000	      0.00000000	      0.00000000	    316.17884241	    209.33950539	      6.11733656	      6.85661476	      4.67703938	      2.99710589	      0.00000000	      0.00000000	      0.00000000	      0.00000000	      0.00000001	      0.00000000	     84.26488000	    -70.70660000	      0.00000000
      0.44145680	      7.65283918	      5.73800338	      6.14301959	      2.69139491	      3.21405937	      3.23701798	      3.95743971	      4.37174018	      6.50003789	      7.05403319	      1.60611820	      5.68570222	      4.19115245	      2.95587196	      2.48552710	      4.04473884	      4.72872174	      2.26621764	      1.62790950	      3.70265860	      5.62701367	      4.20140197	     22.77861708	     13.11420347	      3.67191634	      2.87549776	      4.17425661	     21.87064245	     14.12265450	     14.88266437	     20.19125102	      0.00000000	      1.18598021	     10.62332607	     12.60294372	      2.73934744	      3.81111528	     12.07393292	      3.73094989	      7.54350145	     10.47445599	      8.36801837	      1.50939889	      7.65283918	      5.73800338	      6.14301959	      2.69139491	      3.21405937	      3.23701798	      8.89799063	      4.13942973	      7.81000330	      7.30609454	      1.53821047	      5.68570222	      4.19115245	      2.95587196	      2.48552710	      4.04473884	      4.13244937	      2.26621764	      1.57797350	      3.70265860	      5.62701367	      4.20140197	     22.77861708	     13.11420347	      3.67191634	      2.87549776	      4.17425661	     10.84022385	      6.67868745	      7.66290657	      8.23914379	     14.32798710	      6.65309453	     31.72556857	     42.60968053	      2.82089884	      2.98366207	      8.58202828	      4.41205231	     12.63447108	      2.02874170	      5.35956182	      1.70155038	     25.31255940	     25.31255940	      9.12013952	      9.12013952	     26.91252504	     26.91252504	      2.76307435	     50.99597937	     -9.56042239	      5.21997485	     -0.02578839	      1.48581788	     -2.76307435	    -50.99597937	      9.56042239	     -1.74637766	      0.02558040	     -0.48301696	     -3.31599387	     20.97615968	     -3.40468921	      0.94473225	     -0.02138609	     -1.00501789	      3.31599387	    -20.97615968	      3.40468921	      0.28075727	      0.00368718	     -0.29758878	    149.15083533	    113.75657217	     41.43008621	    -19.80619303	      3.64313521	     61.34998790	   -149.15083533	   -113.75657217	    -41.43008621	      4.18997805	     -4.78231816	     -2.00275304	    417.54885720	    149.38268596	    -65.27081674	     29.28460029	     -7.43797981	    170.33632041	   -417.54885720	   -149.38268596	     65.27081674	     -3.52198440	      6.92893415	     -6.69338245	      0.00000000	      0.00000000	      0.00000000	      0.00000000	      0.00000000	      0.00000000	      0.00000000	      0.00000000	      0.00000000	      0.00000000	      0.00000000	      0.00000000	      0.00000000	      0.00000000	      0.00000000	      0.00000000	      0.00000000	      0.00000000	      0.00000000	      0.00000000	      0.00000000	      0.00000000	      0.00000000	      0.00000000	      0.00000000	      0.00000000	      0.00000000	      0.00000000	      0.00000000	      0.00000000	      0.00000000	      0.00000000	      0.00000000	      0.00000000	      0.00000000	      0.00000000	      0.00000000	      0.00000000	      0.00000000	      0.00000000	      0.00000000	      0.00000000	      0.00000000	      0.00000000	      0.00000000	      0.00000000	      0.00000000	      0.00000000	      0.00000000	      0.00000000	    316.00231143	    209.34904295	      6.05633583	      6.80391203	      4.60101029	      3.11542498	      0.00000000	      0.00000000	      0.00000000	      0.00000000	      0.00000001	      0.00000000	     84.26488000	    -70.70660000	      0.00000000
